<svg xmlns="http://www.w3.org/2000/svg" viewBox="0 0 231.94 353.47"><defs><style>.cls-1{fill:#62d9fa;}</style></defs><g id="Ebene_2" data-name="Ebene 2"><g id="Ebene_1-2" data-name="Ebene 1"><path class="cls-1" d="M231.94,38.57V16.74A199.59,199.59,0,0,0,201.62,40.3c-2.39,2.23-3.94,2.43-6.47,0A161.08,161.08,0,0,0,176.44,24.8c-15.2-11-31.09-20.61-49.93-24-18.27-3.27-33.92,3-42.24,20.89C78.06,35,76.71,49.25,77,63.59A197.45,197.45,0,0,0,82.52,107c.57,2.34-.22,3.32-2.48,4a212.17,212.17,0,0,0-28.21,10.86c-15.09,7-29.17,15.51-40.49,28-14,15.48-15.1,32.68-3,49.62,4.74,6.69,10.82,12,17.41,16.79,16.57,11.93,35.08,19.81,54.43,25.9,2.37.75,3.24,1.54,2.62,4.38C78.69,265.85,76,285.23,78,305c1.05,10.78,3.28,21.26,8.83,30.72,5.39,9.19,13.1,15.23,23.76,17.1,11.21,2,21.82-.54,32.15-4.63C160.8,341,176.31,329.77,191,317.23c2.65-2.28,5.27-4.6,8-7,7,6.21,13.75,12.14,21,17.45,3.94,2.87,7.93,5.64,12,8.23V314.18a191.24,191.24,0,0,1-20.09-16.72c5.15-5.9,10.24-11.71,15.29-17.55q2.45-2.84,4.8-5.74v-34a475.68,475.68,0,0,1-62.84.32c-5.51-.34-8.41-2.42-11.24-6.72a474.26,474.26,0,0,1-31-54.24,5.38,5.38,0,0,1,0-5.27A452.89,452.89,0,0,1,160.31,116a5.13,5.13,0,0,1,4.24-2.54c2.87-.3,5.75-.52,8.62-.69s5.76-.3,8.63-.4,5.77-.14,8.65-.17,5.77,0,8.65,0q5.07,0,10.11.07c2.81,0,5.63.11,8.42.22,2.4.09,4.8.2,7.21.36h.23c2.29.16,4.58.33,6.87.55V79.26c-6.47-8-13.29-15.8-20.54-23.5a180.78,180.78,0,0,1,18.51-15.68Zm-142.82,183c-.38,1.28-.87,2.5-1.48,4.27-5.43-1.91-10.74-3.64-16-5.65-14-5.4-27.41-12-39.18-21.47a52.58,52.58,0,0,1-11.09-11.87c-4.52-6.88-4.54-13.64,0-20.49,5.95-8.9,14.41-14.94,23.34-20.39,13-7.95,27.19-13.43,41.65-18.12a3.9,3.9,0,0,1,1.15,0c3.69,11.91,7.67,23.75,12.38,35.33a34.75,34.75,0,0,0,2.47,5.8c3.55,5.46,2.51,10.47-.08,16.12A264.76,264.76,0,0,0,89.12,221.57Zm131.82,37.12a288.76,288.76,0,0,1-22.15,26,295.74,295.74,0,0,1-22.61-26A350,350,0,0,0,220.94,258.69Zm-67.55,0A412.08,412.08,0,0,0,184.32,296c.36.39.66.85,1.17,1.52a135.07,135.07,0,0,1-16,13.91c-12.24,9.48-25.05,17.93-40.15,22.26a43.35,43.35,0,0,1-10.79,1.73c-8,.24-13.52-3.41-17.06-10.39-3.27-6.42-4.68-13.36-5.42-20.43-2-18.71.6-37.08,4.57-55.31a4.69,4.69,0,0,1,.47-1c11.77,2.72,23.56,5.12,35.53,6.75,4.38.6,8.76,1.21,13.15,1.65A4.61,4.61,0,0,1,153.39,258.67Zm-15-21.74a317.67,317.67,0,0,1-33-6.34,314.64,314.64,0,0,1,10.89-31.9C123.09,212.05,130.37,224.27,138.38,236.93ZM116.29,154.7a298.09,298.09,0,0,1-11.18-32,325.41,325.41,0,0,1,33.27-6.45C130.26,129,123.18,141.38,116.29,154.7Zm50.65-77.78c-4.18,5.32-8.43,10.57-12.41,16a8,8,0,0,1-6.13,3.71,364.81,364.81,0,0,0-47.57,8.41C99,99.53,98.28,94,97.36,88.45a160.59,160.59,0,0,1-2-34.76,68.06,68.06,0,0,1,3.9-20.79c5.35-14.13,12.18-16.31,25.37-14,15.88,2.83,29.06,11.63,41.82,21a201.36,201.36,0,0,1,19,15.86C179.06,62.87,172.68,69.62,166.94,76.92Zm53.85,17.54c-15.15-.49-29.43-1-44.65.14a247.8,247.8,0,0,1,22.21-26A301.54,301.54,0,0,1,220.79,94.46Z"/><path class="cls-1" d="M231.94,192.29a37,37,0,0,1-70.44-15.38c-.09-22.61,18.28-37.46,37.45-37.28a36.61,36.61,0,0,1,33,21.5Z"/></g></g></svg>