<svg xmlns="http://www.w3.org/2000/svg" viewBox="0 0 433.2 38.83"><g id="Ebene_2" data-name="Ebene 2"><g id="Ebene_1-2" data-name="Ebene 1"><path d="M213.22,4.67V17.83A7.16,7.16,0,0,1,220,13.9c2.91,0,6.93,1.48,6.93,8v13h-2V22.26c0-4.06-1.85-6.35-5.25-6.35-4.06,0-6.4,2.5-6.4,7.54V34.89h-2.05V4.67Z" transform="translate(-211.17 -4.67)"/><path d="M250.66,24.6c0,5.7-3.16,10.78-9.27,10.78-5.54,0-9-4.55-9-10.74,0-5.86,3.24-10.74,9.18-10.74C247.05,13.9,250.66,18.16,250.66,24.6Zm-16.08,0c0,4.88,2.63,8.82,7,8.82s6.93-3.65,6.93-8.82c0-4.84-2.46-8.81-7-8.81S234.58,19.72,234.58,24.64Z" transform="translate(-211.17 -4.67)"/><path d="M256.15,19.68c0-1.76,0-3.69,0-5.29h2c0,.7.12,2.46.08,3.65a6.41,6.41,0,0,1,6.15-4.14A5.81,5.81,0,0,1,270.29,18,7,7,0,0,1,277,13.9c3.15,0,6.43,1.8,6.43,7.5V34.89h-2.05V21.65c0-2.75-1-5.74-4.79-5.74-4,0-5.78,3.2-5.78,7.17V34.89h-2V21.69c0-3-.91-5.78-4.68-5.78-4,0-5.9,3.52-5.9,7.71V34.89h-2.05Z" transform="translate(-211.17 -4.67)"/><path d="M291,24.89c0,5.29,2.7,8.57,6.64,8.57a5.77,5.77,0,0,0,5.9-3.86h2.1a7.87,7.87,0,0,1-8.08,5.78c-6.23,0-8.65-5.37-8.65-10.57,0-5.87,2.91-10.91,8.89-10.91,6.32,0,8.33,5.45,8.33,9.31,0,.57,0,1.14,0,1.68Zm13-1.81c-.05-4.06-2.26-7.25-6.28-7.25-4.22,0-6.15,3-6.6,7.25Z" transform="translate(-211.17 -4.67)"/><path d="M371.48,33.5c0,6.56-2.91,10-8.86,10-5.33,0-7.54-3-8-6.11h2.09c.74,2.83,3.07,4.18,6,4.18,5.33,0,6.8-3.44,6.8-8.65V30.79c-1.11,2.67-3.11,4.1-6.85,4.1-4.79,0-8.48-3.89-8.48-10.25,0-6.89,3.93-10.74,8.77-10.74,4.18,0,6,2,6.56,3.61,0-1.19.08-2.63.12-3.12h1.93c0,.74-.08,4-.08,5.95Zm-15.13-8.94c0,4.88,2.58,8.4,6.52,8.4,5.12,0,6.68-3.4,6.68-8.73s-1.64-8.4-6.56-8.4C358.28,15.83,356.35,19.88,356.35,24.56Z" transform="translate(-211.17 -4.67)"/><path d="M392.31,31a24,24,0,0,0,.28,3.89h-2a13,13,0,0,1-.37-3.16c-.7,1.52-2.5,3.65-6.73,3.65-4.75,0-6.8-3.07-6.8-6.15,0-4.51,3.48-6.56,9.63-6.56h3.9V20.58c0-2-.62-4.79-5.29-4.79-4.14,0-4.76,2.17-5.21,3.85h-2.05c.25-2.26,1.64-5.74,7.3-5.74,4.67,0,7.3,2,7.3,6.48Zm-2-6.56h-4c-4.55,0-7.38,1.18-7.38,4.71,0,2.58,1.85,4.35,4.72,4.35,5.86,0,6.68-3.9,6.68-8.33Z" transform="translate(-211.17 -4.67)"/><path d="M399.48,34.89V4.67h2V34.89Z" transform="translate(-211.17 -4.67)"/><path d="M408.67,34.89V4.67h2.05V34.89Z" transform="translate(-211.17 -4.67)"/><path d="M418.3,24.89c0,5.29,2.71,8.57,6.64,8.57a5.78,5.78,0,0,0,5.91-3.86h2.09a7.86,7.86,0,0,1-8.08,5.78c-6.23,0-8.65-5.37-8.65-10.57,0-5.87,2.91-10.91,8.9-10.91,6.31,0,8.32,5.45,8.32,9.31,0,.57,0,1.14,0,1.68Zm13-1.81c0-4.06-2.26-7.25-6.27-7.25-4.23,0-6.15,3-6.61,7.25Z" transform="translate(-211.17 -4.67)"/><path d="M438.84,20c0-3.45,0-4.92,0-5.58h2c0,.66.08,2,.08,4.59A7.77,7.77,0,0,1,448,13.9v2.21c-4.27.29-7.14,3.24-7.14,8.12V34.89h-2.05Z" transform="translate(-211.17 -4.67)"/><path d="M453.27,14.39c4.14,11.73,6,16.57,6.65,18.78h0c.82-2.5,2.46-7.26,6.43-18.78h2.14l-7.71,21.69c-2.18,6.07-3.65,7.42-7.34,7.42a14.08,14.08,0,0,1-1.89-.12V41.33a13.91,13.91,0,0,0,1.85.12c2.95,0,3.89-1.43,5.41-5.66L451,14.39Z" transform="translate(-211.17 -4.67)"/><path d="M532.24,28.86c-1,3.61-3.36,6.52-8,6.52-5.13,0-8.78-3.81-8.78-10.66,0-5.61,3-10.82,9-10.82a7.33,7.33,0,0,1,7.71,6.56h-2.09c-.62-2.38-2.17-4.63-5.66-4.63-4.35,0-6.81,3.69-6.81,8.81,0,4.88,2.3,8.82,6.61,8.82,3,0,4.79-1.52,5.86-4.6Z" transform="translate(-211.17 -4.67)"/><path d="M554.21,24.6c0,5.7-3.15,10.78-9.26,10.78-5.54,0-9-4.55-9-10.74,0-5.86,3.24-10.74,9.18-10.74C550.61,13.9,554.21,18.16,554.21,24.6Zm-16.07,0c0,4.88,2.63,8.82,7,8.82S552,29.81,552,24.64c0-4.84-2.46-8.81-7-8.81S538.14,19.72,538.14,24.64Z" transform="translate(-211.17 -4.67)"/><path d="M559.71,19.56c0-1.81,0-3.53,0-5.17h2c.08.66.12,3.32.08,3.9.9-2.1,2.58-4.39,6.8-4.39,3.65,0,6.89,2,6.89,7.71V34.89H573.4V21.94c0-3.65-1.52-6-5.08-6-4.88,0-6.56,4.06-6.56,8.53V34.89h-2Z" transform="translate(-211.17 -4.67)"/><path d="M579.39,14.39h3.81V8h2v6.4h4.88v1.93h-4.88V29.64c0,2.3.49,3.61,2.46,3.61a7.51,7.51,0,0,0,2.13-.25v1.81a7.1,7.1,0,0,1-2.54.37c-2.62,0-4.1-1.31-4.1-4.59V16.32h-3.81Z" transform="translate(-211.17 -4.67)"/><path d="M608.78,31a23.69,23.69,0,0,0,.29,3.89h-2a14.13,14.13,0,0,1-.37-3.16c-.69,1.52-2.5,3.65-6.72,3.65-4.76,0-6.81-3.07-6.81-6.15,0-4.51,3.49-6.56,9.64-6.56h3.89V20.58c0-2-.61-4.79-5.28-4.79-4.15,0-4.76,2.17-5.21,3.85h-2c.24-2.26,1.64-5.74,7.3-5.74,4.67,0,7.29,2,7.29,6.48Zm-2-6.56h-4c-4.55,0-7.38,1.18-7.38,4.71,0,2.58,1.84,4.35,4.71,4.35,5.87,0,6.69-3.9,6.69-8.33Z" transform="translate(-211.17 -4.67)"/><path d="M631.05,28.86c-1,3.61-3.36,6.52-8,6.52-5.12,0-8.77-3.81-8.77-10.66,0-5.61,3-10.82,9-10.82a7.33,7.33,0,0,1,7.71,6.56H629c-.62-2.38-2.18-4.63-5.66-4.63-4.35,0-6.81,3.69-6.81,8.81,0,4.88,2.3,8.82,6.6,8.82,3,0,4.8-1.52,5.87-4.6Z" transform="translate(-211.17 -4.67)"/><path d="M633.63,14.39h3.81V8h2v6.4h4.88v1.93h-4.88V29.64c0,2.3.49,3.61,2.46,3.61a7.51,7.51,0,0,0,2.13-.25v1.81a7.1,7.1,0,0,1-2.54.37c-2.62,0-4.1-1.31-4.1-4.59V16.32h-3.81Z" transform="translate(-211.17 -4.67)"/></g></g></svg>